<svg xmlns='http://www.w3.org/2000/svg' version='1.1' width='786px' height='193px'><svg xmlns="http://www.w3.org/2000/svg" id="graphic" fill="currentColor" font-family="Source Sans Pro" width="775" height="132.66666666666669" x="10.5" y="59.5"><g class="facets"><g class="fl-facets"><g class="fl-facet" transform="translate(0, 0)" opacity="1"><rect class="fl-facet-rect" width="111.66666666666667" height="132.66666666666669" fill="none"/><rect class="fl-facet-primary-rect" width="111.66666666666667" height="111.66666666666669" y="21" fill="none"/><g class="fl-facet-title"><rect class="fl-facet-title-bg" height="21" width="0" fill="rgb(238, 238, 238)" x="-90.78385416666666" opacity="1"/><text class="fl-facet-title-text" font-size="14" font-weight="600" dx="0" dy="14.700000000000001" x="-90.78385416666666" opacity="1" text-anchor="start">California Public Employees Retirement System</text></g><g class="fl-facet-primary" transform="translate(0, 21)"><g class="fl-chart"><rect class="fl-chart-debug-rectangle" x="0" y="0" style="stroke-width: 1px; fill: none; display: none; stroke: red;" width="111.66666666666667" height="111.66666666666669"/><clipPath class="fl-data-clip-path" id="fl-chart-layout-9-clip-path"><rect x="0" y="0" width="111.66666666666667" height="111.66666666666669"/></clipPath><clipPath class="fl-grid-clip-path" id="fl-chart-layout-9-grid-clip-path"><rect x="-1.5" y="-1.5" width="114.66666666666667" height="114.66666666666669"/></clipPath><g class="fl-chart-background"><rect class="fl-chart-fill" x="0" y="0" width="111.66666666666667" height="111.66666666666669" fill="none"/><image class="fl-chart-image" x="0" y="0" width="111.66666666666667" height="111.66666666666669" preserveAspectRatio="none"/><rect class="fl-chart-interaction" x="0" y="0" width="111.66666666666667" height="111.66666666666669" style="opacity: 0;"/></g><g class="fl-data-background" clip-path="url(#fl-chart-layout-9-clip-path)"/><g class="fl-gridlines" clip-path="url(#fl-chart-layout-9-grid-clip-path)" style="pointer-events: none;"><g class="fl-gridlines-vertical"/><g class="fl-gridlines-horizontal"/></g><g class="fl-axes"><g class="fl-x-axes"><g class="fl-axis fl-x-axis fl-bottom-axis"><g class="fl-axis-line"/><g class="fl-axis-ticks"/><g class="fl-axis-title"/></g><g class="fl-axis fl-x-axis fl-top-axis"><g class="fl-axis-line"/><g class="fl-axis-ticks"/><g class="fl-axis-title"/></g></g><g class="fl-y-axes"><g class="fl-axis fl-y-axis fl-left-axis"><g class="fl-axis-line"/><g class="fl-axis-ticks"/><g class="fl-axis-title"/></g><g class="fl-axis fl-y-axis fl-right-axis"><g class="fl-axis-line"/><g class="fl-axis-ticks"/><g class="fl-axis-title"/></g></g></g><g class="fl-data-foreground" clip-path="url(#fl-chart-layout-9-clip-path)"/></g></g></g><g class="fl-facet" transform="translate(132.6666717529297, 0)" opacity="1"><rect class="fl-facet-rect" width="111.66666666666667" height="132.66666666666669" fill="none"/><rect class="fl-facet-primary-rect" width="111.66666666666667" height="111.66666666666669" y="21" fill="none"/><g class="fl-facet-title"><rect class="fl-facet-title-bg" height="21" width="0" fill="rgb(238, 238, 238)" x="-83.02604166666666" opacity="1"/><text class="fl-facet-title-text" font-size="14" font-weight="600" dx="0" dy="14.700000000000001" x="-83.02604166666666" opacity="1" text-anchor="start">California State Teachers’ Retirement System</text></g><g class="fl-facet-primary" transform="translate(0, 21)"><g class="fl-chart"><rect class="fl-chart-debug-rectangle" x="0" y="0" style="stroke-width: 1px; fill: none; display: none; stroke: red;" width="111.66666666666667" height="111.66666666666669"/><clipPath class="fl-data-clip-path" id="fl-chart-layout-15-clip-path"><rect x="0" y="0" width="111.66666666666667" height="111.66666666666669"/></clipPath><clipPath class="fl-grid-clip-path" id="fl-chart-layout-15-grid-clip-path"><rect x="-1.5" y="-1.5" width="114.66666666666667" height="114.66666666666669"/></clipPath><g class="fl-chart-background"><rect class="fl-chart-fill" x="0" y="0" width="111.66666666666667" height="111.66666666666669" fill="none"/><image class="fl-chart-image" x="0" y="0" width="111.66666666666667" height="111.66666666666669" preserveAspectRatio="none"/><rect class="fl-chart-interaction" x="0" y="0" width="111.66666666666667" height="111.66666666666669" style="opacity: 0;"/></g><g class="fl-data-background" clip-path="url(#fl-chart-layout-15-clip-path)"/><g class="fl-gridlines" clip-path="url(#fl-chart-layout-15-grid-clip-path)" style="pointer-events: none;"><g class="fl-gridlines-vertical"/><g class="fl-gridlines-horizontal"/></g><g class="fl-axes"><g class="fl-x-axes"><g class="fl-axis fl-x-axis fl-bottom-axis"><g class="fl-axis-line"/><g class="fl-axis-ticks"/><g class="fl-axis-title"/></g><g class="fl-axis fl-x-axis fl-top-axis"><g class="fl-axis-line"/><g class="fl-axis-ticks"/><g class="fl-axis-title"/></g></g><g class="fl-y-axes"><g class="fl-axis fl-y-axis fl-left-axis"><g class="fl-axis-line"/><g class="fl-axis-ticks"/><g class="fl-axis-title"/></g><g class="fl-axis fl-y-axis fl-right-axis"><g class="fl-axis-line"/><g class="fl-axis-ticks"/><g class="fl-axis-title"/></g></g></g><g class="fl-data-foreground" clip-path="url(#fl-chart-layout-15-clip-path)"/></g></g></g><g class="fl-facet" transform="translate(265.3333435058594, 0)" opacity="1"><rect class="fl-facet-rect" width="111.66666666666667" height="132.66666666666669" fill="none"/><rect class="fl-facet-primary-rect" width="111.66666666666667" height="111.66666666666669" y="21" fill="none"/><g class="fl-facet-title"><rect class="fl-facet-title-bg" height="21" width="0" fill="rgb(238, 238, 238)" x="-104.81901041666666" opacity="1"/><text class="fl-facet-title-text" font-size="14" font-weight="600" dx="0" dy="14.700000000000001" x="-104.81901041666666" opacity="1" text-anchor="start">Washington State Board of Investment average of all</text></g><g class="fl-facet-primary" transform="translate(0, 21)"><g class="fl-chart"><rect class="fl-chart-debug-rectangle" x="0" y="0" style="stroke-width: 1px; fill: none; display: none; stroke: red;" width="111.66666666666667" height="111.66666666666669"/><clipPath class="fl-data-clip-path" id="fl-chart-layout-16-clip-path"><rect x="0" y="0" width="111.66666666666667" height="111.66666666666669"/></clipPath><clipPath class="fl-grid-clip-path" id="fl-chart-layout-16-grid-clip-path"><rect x="-1.5" y="-1.5" width="114.66666666666667" height="114.66666666666669"/></clipPath><g class="fl-chart-background"><rect class="fl-chart-fill" x="0" y="0" width="111.66666666666667" height="111.66666666666669" fill="none"/><image class="fl-chart-image" x="0" y="0" width="111.66666666666667" height="111.66666666666669" preserveAspectRatio="none"/><rect class="fl-chart-interaction" x="0" y="0" width="111.66666666666667" height="111.66666666666669" style="opacity: 0;"/></g><g class="fl-data-background" clip-path="url(#fl-chart-layout-16-clip-path)"/><g class="fl-gridlines" clip-path="url(#fl-chart-layout-16-grid-clip-path)" style="pointer-events: none;"><g class="fl-gridlines-vertical"/><g class="fl-gridlines-horizontal"/></g><g class="fl-axes"><g class="fl-x-axes"><g class="fl-axis fl-x-axis fl-bottom-axis"><g class="fl-axis-line"/><g class="fl-axis-ticks"/><g class="fl-axis-title"/></g><g class="fl-axis fl-x-axis fl-top-axis"><g class="fl-axis-line"/><g class="fl-axis-ticks"/><g class="fl-axis-title"/></g></g><g class="fl-y-axes"><g class="fl-axis fl-y-axis fl-left-axis"><g class="fl-axis-line"/><g class="fl-axis-ticks"/><g class="fl-axis-title"/></g><g class="fl-axis fl-y-axis fl-right-axis"><g class="fl-axis-line"/><g class="fl-axis-ticks"/><g class="fl-axis-title"/></g></g></g><g class="fl-data-foreground" clip-path="url(#fl-chart-layout-16-clip-path)"/></g></g></g><g class="fl-facet" transform="translate(398, 0)" opacity="1"><rect class="fl-facet-rect" width="111.66666666666667" height="132.66666666666669" fill="none"/><rect class="fl-facet-primary-rect" width="111.66666666666667" height="111.66666666666669" y="21" fill="none"/><g class="fl-facet-title"><rect class="fl-facet-title-bg" height="21" width="0" fill="rgb(238, 238, 238)" x="-50.604166666666664" opacity="1"/><text class="fl-facet-title-text" font-size="14" font-weight="600" dx="0" dy="14.700000000000001" x="-50.604166666666664" opacity="1" text-anchor="start">Texas Teachers Retirement System</text></g><g class="fl-facet-primary" transform="translate(0, 21)"><g class="fl-chart"><rect class="fl-chart-debug-rectangle" x="0" y="0" style="stroke-width: 1px; fill: none; display: none; stroke: red;" width="111.66666666666667" height="111.66666666666669"/><clipPath class="fl-data-clip-path" id="fl-chart-layout-17-clip-path"><rect x="0" y="0" width="111.66666666666667" height="111.66666666666669"/></clipPath><clipPath class="fl-grid-clip-path" id="fl-chart-layout-17-grid-clip-path"><rect x="-1.5" y="-1.5" width="114.66666666666667" height="114.66666666666669"/></clipPath><g class="fl-chart-background"><rect class="fl-chart-fill" x="0" y="0" width="111.66666666666667" height="111.66666666666669" fill="none"/><image class="fl-chart-image" x="0" y="0" width="111.66666666666667" height="111.66666666666669" preserveAspectRatio="none"/><rect class="fl-chart-interaction" x="0" y="0" width="111.66666666666667" height="111.66666666666669" style="opacity: 0;"/></g><g class="fl-data-background" clip-path="url(#fl-chart-layout-17-clip-path)"/><g class="fl-gridlines" clip-path="url(#fl-chart-layout-17-grid-clip-path)" style="pointer-events: none;"><g class="fl-gridlines-vertical"/><g class="fl-gridlines-horizontal"/></g><g class="fl-axes"><g class="fl-x-axes"><g class="fl-axis fl-x-axis fl-bottom-axis"><g class="fl-axis-line"/><g class="fl-axis-ticks"/><g class="fl-axis-title"/></g><g class="fl-axis fl-x-axis fl-top-axis"><g class="fl-axis-line"/><g class="fl-axis-ticks"/><g class="fl-axis-title"/></g></g><g class="fl-y-axes"><g class="fl-axis fl-y-axis fl-left-axis"><g class="fl-axis-line"/><g class="fl-axis-ticks"/><g class="fl-axis-title"/></g><g class="fl-axis fl-y-axis fl-right-axis"><g class="fl-axis-line"/><g class="fl-axis-ticks"/><g class="fl-axis-title"/></g></g></g><g class="fl-data-foreground" clip-path="url(#fl-chart-layout-17-clip-path)"/></g></g></g><g class="fl-facet" transform="translate(530.6666870117188, 0)" opacity="1"><rect class="fl-facet-rect" width="111.66666666666667" height="132.66666666666669" fill="none"/><rect class="fl-facet-primary-rect" width="111.66666666666667" height="111.66666666666669" y="21" fill="none"/><g class="fl-facet-title"><rect class="fl-facet-title-bg" height="21" width="0" fill="rgb(238, 238, 238)" x="-73.02994791666666" opacity="1"/><text class="fl-facet-title-text" font-size="14" font-weight="600" dx="0" dy="14.700000000000001" x="-73.02994791666666" opacity="1" text-anchor="start">New York State Common Retirement Fund</text></g><g class="fl-facet-primary" transform="translate(0, 21)"><g class="fl-chart"><rect class="fl-chart-debug-rectangle" x="0" y="0" style="stroke-width: 1px; fill: none; display: none; stroke: red;" width="111.66666666666667" height="111.66666666666669"/><clipPath class="fl-data-clip-path" id="fl-chart-layout-18-clip-path"><rect x="0" y="0" width="111.66666666666667" height="111.66666666666669"/></clipPath><clipPath class="fl-grid-clip-path" id="fl-chart-layout-18-grid-clip-path"><rect x="-1.5" y="-1.5" width="114.66666666666667" height="114.66666666666669"/></clipPath><g class="fl-chart-background"><rect class="fl-chart-fill" x="0" y="0" width="111.66666666666667" height="111.66666666666669" fill="none"/><image class="fl-chart-image" x="0" y="0" width="111.66666666666667" height="111.66666666666669" preserveAspectRatio="none"/><rect class="fl-chart-interaction" x="0" y="0" width="111.66666666666667" height="111.66666666666669" style="opacity: 0;"/></g><g class="fl-data-background" clip-path="url(#fl-chart-layout-18-clip-path)"/><g class="fl-gridlines" clip-path="url(#fl-chart-layout-18-grid-clip-path)" style="pointer-events: none;"><g class="fl-gridlines-vertical"/><g class="fl-gridlines-horizontal"/></g><g class="fl-axes"><g class="fl-x-axes"><g class="fl-axis fl-x-axis fl-bottom-axis"><g class="fl-axis-line"/><g class="fl-axis-ticks"/><g class="fl-axis-title"/></g><g class="fl-axis fl-x-axis fl-top-axis"><g class="fl-axis-line"/><g class="fl-axis-ticks"/><g class="fl-axis-title"/></g></g><g class="fl-y-axes"><g class="fl-axis fl-y-axis fl-left-axis"><g class="fl-axis-line"/><g class="fl-axis-ticks"/><g class="fl-axis-title"/></g><g class="fl-axis fl-y-axis fl-right-axis"><g class="fl-axis-line"/><g class="fl-axis-ticks"/><g class="fl-axis-title"/></g></g></g><g class="fl-data-foreground" clip-path="url(#fl-chart-layout-18-clip-path)"/></g></g></g><g class="fl-facet" transform="translate(663.3333129882812, 0)" opacity="1"><rect class="fl-facet-rect" width="111.66666666666667" height="132.66666666666669" fill="none"/><rect class="fl-facet-primary-rect" width="111.66666666666667" height="111.66666666666669" y="21" fill="none"/><g class="fl-facet-title"><rect class="fl-facet-title-bg" height="21" width="0" fill="rgb(238, 238, 238)" x="48.138020833333336" opacity="1"/><text class="fl-facet-title-text" font-size="14" font-weight="600" dx="0" dy="14.700000000000001" x="48.138020833333336" opacity="1" text-anchor="start">all</text></g><g class="fl-facet-primary" transform="translate(0, 21)"><g class="fl-chart"><rect class="fl-chart-debug-rectangle" x="0" y="0" style="stroke-width: 1px; fill: none; display: none; stroke: red;" width="111.66666666666667" height="111.66666666666669"/><clipPath class="fl-data-clip-path" id="fl-chart-layout-19-clip-path"><rect x="0" y="0" width="111.66666666666667" height="111.66666666666669"/></clipPath><clipPath class="fl-grid-clip-path" id="fl-chart-layout-19-grid-clip-path"><rect x="-1.5" y="-1.5" width="114.66666666666667" height="114.66666666666669"/></clipPath><g class="fl-chart-background"><rect class="fl-chart-fill" x="0" y="0" width="111.66666666666667" height="111.66666666666669" fill="none"/><image class="fl-chart-image" x="0" y="0" width="111.66666666666667" height="111.66666666666669" preserveAspectRatio="none"/><rect class="fl-chart-interaction" x="0" y="0" width="111.66666666666667" height="111.66666666666669" style="opacity: 0;"/></g><g class="fl-data-background" clip-path="url(#fl-chart-layout-19-clip-path)"/><g class="fl-gridlines" clip-path="url(#fl-chart-layout-19-grid-clip-path)" style="pointer-events: none;"><g class="fl-gridlines-vertical"/><g class="fl-gridlines-horizontal"/></g><g class="fl-axes"><g class="fl-x-axes"><g class="fl-axis fl-x-axis fl-bottom-axis"><g class="fl-axis-line"/><g class="fl-axis-ticks"/><g class="fl-axis-title"/></g><g class="fl-axis fl-x-axis fl-top-axis"><g class="fl-axis-line"/><g class="fl-axis-ticks"/><g class="fl-axis-title"/></g></g><g class="fl-y-axes"><g class="fl-axis fl-y-axis fl-left-axis"><g class="fl-axis-line"/><g class="fl-axis-ticks"/><g class="fl-axis-title"/></g><g class="fl-axis fl-y-axis fl-right-axis"><g class="fl-axis-line"/><g class="fl-axis-ticks"/><g class="fl-axis-title"/></g></g></g><g class="fl-data-foreground" clip-path="url(#fl-chart-layout-19-clip-path)"/></g></g></g></g></g><g class="annotations below"/><g id="areas"/><g id="lines"/><g id="data-points"><g class="series" transform="translate(0,21)"><path class="data-point" data-type="arc" fill="#1D6996" opacity="1" d="M0.26714810468791717,-52.73221837143916A3,3,0,0,1,3.4526644008531617,-55.726476827861575A55.833333333333336,55.833333333333336,0,1,1,-30.75580487162033,-46.5987293583197A3,3,0,0,1,-26.502042058606953,-45.58947235060757L-14.148233400224173,-24.08817610415229A3,3,0,0,1,-14.962837983321096,-20.183634570732877A25.125,25.125,0,1,0,2.9186523068545394,-24.954901196191756A3,3,0,0,1,0.2671481046879194,-27.934590891259425Z" stroke-width="0" transform="translate(55.83333206176758, 55.83333206176758)" visibility="visible" id="point-0-12"/><path class="data-point" data-type="arc" fill="#EDAD08" opacity="1" d="M-26.038769469713923,-45.85565076395796A3,3,0,0,1,-24.768396585753475,-50.03886131480159A55.833333333333336,55.833333333333336,0,0,1,-3.4526644008531715,-55.72647682786157A3,3,0,0,1,-0.26714810468792516,-52.73221837143916L-0.26714810468793315,-27.934590891259422A3,3,0,0,1,-2.918652306854553,-24.95490119619175A25.125,25.125,0,0,0,-9.901482179001643,-23.09169278461224A3,3,0,0,1,-13.684960811331125,-24.35435451750269Z" stroke-width="0" transform="translate(55.83333206176758, 55.83333206176758)" visibility="visible" id="point-0-13"/></g><g class="series" transform="translate(132.6666717529297, 21)"><path class="data-point" data-type="arc" fill="#1D6996" opacity="1" d="M0.26714810468791717,-52.73221837143916A3,3,0,0,1,3.4526644008531617,-55.726476827861575A55.833333333333336,55.833333333333336,0,1,1,-40.66428246535147,-38.2593419008903A3,3,0,0,1,-36.29243006256089,-38.257257385195686L-19.317285937106135,-20.1805649176616A3,3,0,0,1,-19.21041135863753,-16.193385082555476A25.125,25.125,0,1,0,2.9186523068545394,-24.954901196191756A3,3,0,0,1,0.2671481046879194,-27.934590891259425Z" stroke-width="0" transform="translate(55.83333206176758, 55.83333206176758)" visibility="visible" id="point-0-14"/><path class="data-point" data-type="arc" fill="#EDAD08" opacity="1" d="M-35.90294488817574,-38.62300830903258A3,3,0,0,1,-35.63051440687809,-42.986364747584375A55.833333333333336,55.833333333333336,0,0,1,-3.4526644008531715,-55.72647682786157A3,3,0,0,1,-0.26714810468792516,-52.73221837143916L-0.26714810468793315,-27.934590891259422A3,3,0,0,1,-2.918652306854553,-24.95490119619175A25.125,25.125,0,0,0,-14.95519942654135,-20.189295062294207A3,3,0,0,1,-18.927800762720974,-20.546315841498494Z" stroke-width="0" transform="translate(55.83333206176758, 55.83333206176758)" visibility="visible" id="point-0-15"/></g><g class="series" transform="translate(265.3333435058594, 21)"><path class="data-point" data-type="arc" fill="#1D6996" opacity="1" d="M0.26714810468791717,-52.73221837143916A3,3,0,0,1,3.4526644008531617,-55.726476827861575A55.833333333333336,55.833333333333336,0,1,1,-34.70414380048076,43.73766699524181A3,3,0,0,1,-35.06971867171295,39.3811256158314L-18.484587813423765,20.94594828933983A3,3,0,0,1,-14.520519325934739,20.504149421645263A25.125,25.125,0,1,0,2.9186523068545394,-24.954901196191756A3,3,0,0,1,0.2671481046879194,-27.934590891259425Z" stroke-width="0" transform="translate(55.83333206176758, 55.83333206176758)" visibility="visible" id="point-0-16"/><path class="data-point" data-type="arc" fill="#EDAD08" opacity="1" d="M-35.46692785523618,39.02377802051534A3,3,0,0,1,-39.837738175948125,39.11925009679655A55.833333333333336,55.833333333333336,0,0,1,-3.4526644008531715,-55.72647682786157A3,3,0,0,1,-0.26714810468792516,-52.73221837143916L-0.26714810468793315,-27.934590891259422A3,3,0,0,1,-2.918652306854553,-24.95490119619175A25.125,25.125,0,0,0,-18.86011777132982,16.60004767015954A3,3,0,0,1,-18.88179699694701,20.588600694023754Z" stroke-width="0" transform="translate(55.83333206176758, 55.83333206176758)" visibility="visible" id="point-0-17"/></g><g class="series" transform="translate(398, 21)"><path class="data-point" data-type="arc" fill="#1D6996" opacity="1" d="M0.26714810468791717,-52.73221837143916A3,3,0,0,1,3.4526644008531617,-55.726476827861575A55.833333333333336,55.833333333333336,0,1,1,-50.936832726562095,-22.86482413878017A3,3,0,0,1,-46.80447504732041,-24.291960357858013L-24.852838755107175,-12.757317201689204A3,3,0,0,1,-23.448474177143332,-9.02411678580471A25.125,25.125,0,1,0,2.9186523068545394,-24.954901196191756A3,3,0,0,1,0.2671481046879194,-27.934590891259425Z" stroke-width="0" transform="translate(55.83333206176758, 55.83333206176758)" visibility="visible" id="point-0-18"/><path class="data-point" data-type="arc" fill="#EDAD08" opacity="1" d="M-46.55594658951654,-24.76493609192374A3,3,0,0,1,-47.724811589969065,-28.977637409096438A55.833333333333336,55.833333333333336,0,0,1,-3.4526644008531715,-55.72647682786157A3,3,0,0,1,-0.26714810468792516,-52.73221837143916L-0.26714810468793315,-27.934590891259422A3,3,0,0,1,-2.918652306854553,-24.95490119619175A25.125,25.125,0,0,0,-20.733245643010036,-14.191481603645384A3,3,0,0,1,-24.604310297303307,-13.230292935754933Z" stroke-width="0" transform="translate(55.83333206176758, 55.83333206176758)" visibility="visible" id="point-0-19"/></g><g class="series" transform="translate(530.6666870117188, 21)"><path class="data-point" data-type="arc" fill="#1D6996" opacity="1" d="M0.26714810468791717,-52.73221837143916A3,3,0,0,1,3.4526644008531617,-55.726476827861575A55.833333333333336,55.833333333333336,0,1,1,-42.986364747584375,-35.630514406878085A3,3,0,0,1,-38.62300830903259,-35.90294488817573L-20.54631584149849,-18.927800762720967A3,3,0,0,1,-20.189295062294203,-14.955199426541347A25.125,25.125,0,1,0,2.9186523068545394,-24.954901196191756A3,3,0,0,1,0.2671481046879194,-27.934590891259425Z" stroke-width="0" transform="translate(55.83333206176758, 55.83333206176758)" visibility="visible" id="point-0-20"/><path class="data-point" data-type="arc" fill="#EDAD08" opacity="1" d="M-38.2572573851957,-36.29243006256089A3,3,0,0,1,-38.259341900890306,-40.66428246535147A55.833333333333336,55.833333333333336,0,0,1,-3.4526644008531715,-55.72647682786157A3,3,0,0,1,-0.26714810468792516,-52.73221837143916L-0.26714810468793315,-27.934590891259422A3,3,0,0,1,-2.918652306854553,-24.95490119619175A25.125,25.125,0,0,0,-16.193385082555473,-19.210411358637533A3,3,0,0,1,-20.1805649176616,-19.31728593710613Z" stroke-width="0" transform="translate(55.83333206176758, 55.83333206176758)" visibility="visible" id="point-0-21"/></g><g class="series" transform="translate(663.3333129882812, 21)"><path class="data-point" data-type="arc" fill="#1D6996" opacity="1" d="M0.26714810468791717,-52.73221837143916A3,3,0,0,1,3.4526644008531617,-55.726476827861575A55.833333333333336,55.833333333333336,0,1,1,-42.896679829393385,-35.73843828045129A3,3,0,0,1,-38.532652479748826,-35.99990160205844L-20.49868024887034,-18.97937945314455A3,3,0,0,1,-20.15164482286242,-15.005893373378415A25.125,25.125,0,1,0,2.9186523068545394,-24.954901196191756A3,3,0,0,1,0.2671481046879194,-27.934590891259425Z" stroke-width="0" transform="translate(55.83333206176758, 55.83333206176758)" visibility="visible" id="point-0-22"/><path class="data-point" data-type="arc" fill="#EDAD08" opacity="1" d="M-38.16592382907324,-36.38846631497902A3,3,0,0,1,-38.15702068623878,-40.76031014922552A55.833333333333336,55.833333333333336,0,0,1,-3.4526644008531715,-55.72647682786157A3,3,0,0,1,-0.26714810468792516,-52.73221837143916L-0.26714810468793315,-27.934590891259422A3,3,0,0,1,-2.918652306854553,-24.95490119619175A25.125,25.125,0,0,0,-16.14505296051573,-19.251049059782225A3,3,0,0,1,-20.131951598194753,-19.367944166065126Z" stroke-width="0" transform="translate(55.83333206176758, 55.83333206176758)" visibility="visible" id="point-0-23"/></g></g><g id="lines-secondary"/><g id="data-points-secondary"/><g id="axes-highlights"><g class="axis-highlights-facet"><defs><pattern class="fl-pattern-auto" width="4" height="4" patternUnits="userSpaceOnUse" id="fl-pattern-diagonal-x"><path stroke-width="1" shape-rendering="auto" stroke-linecap="square" d="M 0 4 l 4 -4 M -1 1 l 2 -2 M 3 5 l 2 -2" style="stroke: currentcolor;"/></pattern><pattern class="fl-pattern-auto" width="4" height="4" patternUnits="userSpaceOnUse" id="fl-pattern-dots-x"><path stroke-width="1" shape-rendering="auto" stroke-linecap="square" d="M 1 2 A 1.2 1.2 0 1 1 1 2.1 Z" style="fill: currentcolor;"/></pattern><pattern class="fl-pattern-auto" width="4" height="4" patternUnits="userSpaceOnUse" id="fl-pattern-grid-x"><path stroke-width="1" shape-rendering="auto" stroke-linecap="square" d="M 2 0 l 0 4 M 0 2 l 4 0" style="stroke: currentcolor;"/></pattern><pattern class="fl-pattern-auto" width="4" height="4" patternUnits="userSpaceOnUse" id="fl-pattern-diagonal-y"><path stroke-width="1" shape-rendering="auto" stroke-linecap="square" d="M 0 4 l 4 -4 M -1 1 l 2 -2 M 3 5 l 2 -2" style="stroke: currentcolor;"/></pattern><pattern class="fl-pattern-auto" width="4" height="4" patternUnits="userSpaceOnUse" id="fl-pattern-grid-y"><path stroke-width="1" shape-rendering="auto" stroke-linecap="square" d="M 2 0 l 0 4 M 0 2 l 4 0" style="stroke: currentcolor;"/></pattern><pattern class="fl-pattern-auto" width="4" height="4" patternUnits="userSpaceOnUse" id="fl-pattern-dots-y"><path stroke-width="1" shape-rendering="auto" stroke-linecap="square" d="M 1 2 A 1.2 1.2 0 1 1 1 2.1 Z" style="fill: currentcolor;"/></pattern></defs><g class="axis-highlights" style="opacity: 1;" transform="translate(0, 21)"/></g><g class="axis-highlights-facet"><g class="axis-highlights" style="opacity: 1;" transform="translate(132.6666717529297, 21)"/></g><g class="axis-highlights-facet"><g class="axis-highlights" style="opacity: 1;" transform="translate(265.3333435058594, 21)"/></g><g class="axis-highlights-facet"><g class="axis-highlights" style="opacity: 1;" transform="translate(398, 21)"/></g><g class="axis-highlights-facet"><g class="axis-highlights" style="opacity: 1;" transform="translate(530.6666870117188, 21)"/></g><g class="axis-highlights-facet"><g class="axis-highlights" style="opacity: 1;" transform="translate(663.3333129882812, 21)"/></g></g><g id="data-point-labels"><g class="series" transform="translate(0,21)"/><g class="series" transform="translate(132.6666717529297, 21)"/><g class="series" transform="translate(265.3333435058594, 21)"/><g class="series" transform="translate(398, 21)"/><g class="series" transform="translate(530.6666870117188, 21)"/><g class="series" transform="translate(663.3333129882812, 21)"/></g><g id="stack-labels"/><g class="annotations above"/></svg><svg xmlns="http://www.w3.org/2000/svg" class="flourish-panel-close" viewBox="0 0 40 40" style="width: 1.25rem; height: 1.25rem; position: absolute; right: 1rem; top: 1rem; cursor: pointer; opacity: 0;" x="-31.5" y="14"><path stroke="#333333" stroke-width="0.5rem" stroke-linecap="round" d="M 10,10 L 30,30 M 30,10 L 10,30" style="stroke: rgb(51, 51, 51);"/></svg></svg>