<svg xmlns='http://www.w3.org/2000/svg' version='1.1' width='786px' height='193px'><svg xmlns="http://www.w3.org/2000/svg" id="graphic" fill="currentColor" font-family="Source Sans Pro" width="775" height="132.66666666666669" x="10.5" y="59.5"><g class="facets"><g class="fl-facets"><g class="fl-facet" transform="translate(0, 0)" opacity="1"><rect class="fl-facet-rect" width="111.66666666666667" height="132.66666666666669" fill="none"/><rect class="fl-facet-primary-rect" width="111.66666666666667" height="111.66666666666669" y="21" fill="none"/><g class="fl-facet-title"><rect class="fl-facet-title-bg" height="21" width="0" fill="rgb(238, 238, 238)" x="-90.78385416666666" opacity="1"/><text class="fl-facet-title-text" font-size="14" font-weight="600" dx="0" dy="14.700000000000001" x="-90.78385416666666" opacity="1" text-anchor="start">California Public Employees Retirement System</text></g><g class="fl-facet-primary" transform="translate(0, 21)"><g class="fl-chart"><rect class="fl-chart-debug-rectangle" x="0" y="0" style="stroke-width: 1px; fill: none; display: none; stroke: red;" width="111.66666666666667" height="111.66666666666669"/><clipPath class="fl-data-clip-path" id="fl-chart-layout-9-clip-path"><rect x="0" y="0" width="111.66666666666667" height="111.66666666666669"/></clipPath><clipPath class="fl-grid-clip-path" id="fl-chart-layout-9-grid-clip-path"><rect x="-1.5" y="-1.5" width="114.66666666666667" height="114.66666666666669"/></clipPath><g class="fl-chart-background"><rect class="fl-chart-fill" x="0" y="0" width="111.66666666666667" height="111.66666666666669" fill="none"/><image class="fl-chart-image" x="0" y="0" width="111.66666666666667" height="111.66666666666669" preserveAspectRatio="none"/><rect class="fl-chart-interaction" x="0" y="0" width="111.66666666666667" height="111.66666666666669" style="opacity: 0;"/></g><g class="fl-data-background" clip-path="url(#fl-chart-layout-9-clip-path)"/><g class="fl-gridlines" clip-path="url(#fl-chart-layout-9-grid-clip-path)" style="pointer-events: none;"><g class="fl-gridlines-vertical"/><g class="fl-gridlines-horizontal"/></g><g class="fl-axes"><g class="fl-x-axes"><g class="fl-axis fl-x-axis fl-bottom-axis"><g class="fl-axis-line"/><g class="fl-axis-ticks"/><g class="fl-axis-title"/></g><g class="fl-axis fl-x-axis fl-top-axis"><g class="fl-axis-line"/><g class="fl-axis-ticks"/><g class="fl-axis-title"/></g></g><g class="fl-y-axes"><g class="fl-axis fl-y-axis fl-left-axis"><g class="fl-axis-line"/><g class="fl-axis-ticks"/><g class="fl-axis-title"/></g><g class="fl-axis fl-y-axis fl-right-axis"><g class="fl-axis-line"/><g class="fl-axis-ticks"/><g class="fl-axis-title"/></g></g></g><g class="fl-data-foreground" clip-path="url(#fl-chart-layout-9-clip-path)"/></g></g></g><g class="fl-facet" transform="translate(132.6666717529297, 0)" opacity="1"><rect class="fl-facet-rect" width="111.66666666666667" height="132.66666666666669" fill="none"/><rect class="fl-facet-primary-rect" width="111.66666666666667" height="111.66666666666669" y="21" fill="none"/><g class="fl-facet-title"><rect class="fl-facet-title-bg" height="21" width="0" fill="rgb(238, 238, 238)" x="-83.02604166666666" opacity="1"/><text class="fl-facet-title-text" font-size="14" font-weight="600" dx="0" dy="14.700000000000001" x="-83.02604166666666" opacity="1" text-anchor="start">California State Teachers’ Retirement System</text></g><g class="fl-facet-primary" transform="translate(0, 21)"><g class="fl-chart"><rect class="fl-chart-debug-rectangle" x="0" y="0" style="stroke-width: 1px; fill: none; display: none; stroke: red;" width="111.66666666666667" height="111.66666666666669"/><clipPath class="fl-data-clip-path" id="fl-chart-layout-15-clip-path"><rect x="0" y="0" width="111.66666666666667" height="111.66666666666669"/></clipPath><clipPath class="fl-grid-clip-path" id="fl-chart-layout-15-grid-clip-path"><rect x="-1.5" y="-1.5" width="114.66666666666667" height="114.66666666666669"/></clipPath><g class="fl-chart-background"><rect class="fl-chart-fill" x="0" y="0" width="111.66666666666667" height="111.66666666666669" fill="none"/><image class="fl-chart-image" x="0" y="0" width="111.66666666666667" height="111.66666666666669" preserveAspectRatio="none"/><rect class="fl-chart-interaction" x="0" y="0" width="111.66666666666667" height="111.66666666666669" style="opacity: 0;"/></g><g class="fl-data-background" clip-path="url(#fl-chart-layout-15-clip-path)"/><g class="fl-gridlines" clip-path="url(#fl-chart-layout-15-grid-clip-path)" style="pointer-events: none;"><g class="fl-gridlines-vertical"/><g class="fl-gridlines-horizontal"/></g><g class="fl-axes"><g class="fl-x-axes"><g class="fl-axis fl-x-axis fl-bottom-axis"><g class="fl-axis-line"/><g class="fl-axis-ticks"/><g class="fl-axis-title"/></g><g class="fl-axis fl-x-axis fl-top-axis"><g class="fl-axis-line"/><g class="fl-axis-ticks"/><g class="fl-axis-title"/></g></g><g class="fl-y-axes"><g class="fl-axis fl-y-axis fl-left-axis"><g class="fl-axis-line"/><g class="fl-axis-ticks"/><g class="fl-axis-title"/></g><g class="fl-axis fl-y-axis fl-right-axis"><g class="fl-axis-line"/><g class="fl-axis-ticks"/><g class="fl-axis-title"/></g></g></g><g class="fl-data-foreground" clip-path="url(#fl-chart-layout-15-clip-path)"/></g></g></g><g class="fl-facet" transform="translate(265.3333435058594, 0)" opacity="1"><rect class="fl-facet-rect" width="111.66666666666667" height="132.66666666666669" fill="none"/><rect class="fl-facet-primary-rect" width="111.66666666666667" height="111.66666666666669" y="21" fill="none"/><g class="fl-facet-title"><rect class="fl-facet-title-bg" height="21" width="0" fill="rgb(238, 238, 238)" x="-104.81901041666666" opacity="1"/><text class="fl-facet-title-text" font-size="14" font-weight="600" dx="0" dy="14.700000000000001" x="-104.81901041666666" opacity="1" text-anchor="start">Washington State Board of Investment average of all</text></g><g class="fl-facet-primary" transform="translate(0, 21)"><g class="fl-chart"><rect class="fl-chart-debug-rectangle" x="0" y="0" style="stroke-width: 1px; fill: none; display: none; stroke: red;" width="111.66666666666667" height="111.66666666666669"/><clipPath class="fl-data-clip-path" id="fl-chart-layout-16-clip-path"><rect x="0" y="0" width="111.66666666666667" height="111.66666666666669"/></clipPath><clipPath class="fl-grid-clip-path" id="fl-chart-layout-16-grid-clip-path"><rect x="-1.5" y="-1.5" width="114.66666666666667" height="114.66666666666669"/></clipPath><g class="fl-chart-background"><rect class="fl-chart-fill" x="0" y="0" width="111.66666666666667" height="111.66666666666669" fill="none"/><image class="fl-chart-image" x="0" y="0" width="111.66666666666667" height="111.66666666666669" preserveAspectRatio="none"/><rect class="fl-chart-interaction" x="0" y="0" width="111.66666666666667" height="111.66666666666669" style="opacity: 0;"/></g><g class="fl-data-background" clip-path="url(#fl-chart-layout-16-clip-path)"/><g class="fl-gridlines" clip-path="url(#fl-chart-layout-16-grid-clip-path)" style="pointer-events: none;"><g class="fl-gridlines-vertical"/><g class="fl-gridlines-horizontal"/></g><g class="fl-axes"><g class="fl-x-axes"><g class="fl-axis fl-x-axis fl-bottom-axis"><g class="fl-axis-line"/><g class="fl-axis-ticks"/><g class="fl-axis-title"/></g><g class="fl-axis fl-x-axis fl-top-axis"><g class="fl-axis-line"/><g class="fl-axis-ticks"/><g class="fl-axis-title"/></g></g><g class="fl-y-axes"><g class="fl-axis fl-y-axis fl-left-axis"><g class="fl-axis-line"/><g class="fl-axis-ticks"/><g class="fl-axis-title"/></g><g class="fl-axis fl-y-axis fl-right-axis"><g class="fl-axis-line"/><g class="fl-axis-ticks"/><g class="fl-axis-title"/></g></g></g><g class="fl-data-foreground" clip-path="url(#fl-chart-layout-16-clip-path)"/></g></g></g><g class="fl-facet" transform="translate(398, 0)" opacity="1"><rect class="fl-facet-rect" width="111.66666666666667" height="132.66666666666669" fill="none"/><rect class="fl-facet-primary-rect" width="111.66666666666667" height="111.66666666666669" y="21" fill="none"/><g class="fl-facet-title"><rect class="fl-facet-title-bg" height="21" width="0" fill="rgb(238, 238, 238)" x="-50.604166666666664" opacity="1"/><text class="fl-facet-title-text" font-size="14" font-weight="600" dx="0" dy="14.700000000000001" x="-50.604166666666664" opacity="1" text-anchor="start">Texas Teachers Retirement System</text></g><g class="fl-facet-primary" transform="translate(0, 21)"><g class="fl-chart"><rect class="fl-chart-debug-rectangle" x="0" y="0" style="stroke-width: 1px; fill: none; display: none; stroke: red;" width="111.66666666666667" height="111.66666666666669"/><clipPath class="fl-data-clip-path" id="fl-chart-layout-17-clip-path"><rect x="0" y="0" width="111.66666666666667" height="111.66666666666669"/></clipPath><clipPath class="fl-grid-clip-path" id="fl-chart-layout-17-grid-clip-path"><rect x="-1.5" y="-1.5" width="114.66666666666667" height="114.66666666666669"/></clipPath><g class="fl-chart-background"><rect class="fl-chart-fill" x="0" y="0" width="111.66666666666667" height="111.66666666666669" fill="none"/><image class="fl-chart-image" x="0" y="0" width="111.66666666666667" height="111.66666666666669" preserveAspectRatio="none"/><rect class="fl-chart-interaction" x="0" y="0" width="111.66666666666667" height="111.66666666666669" style="opacity: 0;"/></g><g class="fl-data-background" clip-path="url(#fl-chart-layout-17-clip-path)"/><g class="fl-gridlines" clip-path="url(#fl-chart-layout-17-grid-clip-path)" style="pointer-events: none;"><g class="fl-gridlines-vertical"/><g class="fl-gridlines-horizontal"/></g><g class="fl-axes"><g class="fl-x-axes"><g class="fl-axis fl-x-axis fl-bottom-axis"><g class="fl-axis-line"/><g class="fl-axis-ticks"/><g class="fl-axis-title"/></g><g class="fl-axis fl-x-axis fl-top-axis"><g class="fl-axis-line"/><g class="fl-axis-ticks"/><g class="fl-axis-title"/></g></g><g class="fl-y-axes"><g class="fl-axis fl-y-axis fl-left-axis"><g class="fl-axis-line"/><g class="fl-axis-ticks"/><g class="fl-axis-title"/></g><g class="fl-axis fl-y-axis fl-right-axis"><g class="fl-axis-line"/><g class="fl-axis-ticks"/><g class="fl-axis-title"/></g></g></g><g class="fl-data-foreground" clip-path="url(#fl-chart-layout-17-clip-path)"/></g></g></g><g class="fl-facet" transform="translate(530.6666870117188, 0)" opacity="1"><rect class="fl-facet-rect" width="111.66666666666667" height="132.66666666666669" fill="none"/><rect class="fl-facet-primary-rect" width="111.66666666666667" height="111.66666666666669" y="21" fill="none"/><g class="fl-facet-title"><rect class="fl-facet-title-bg" height="21" width="0" fill="rgb(238, 238, 238)" x="-73.02994791666666" opacity="1"/><text class="fl-facet-title-text" font-size="14" font-weight="600" dx="0" dy="14.700000000000001" x="-73.02994791666666" opacity="1" text-anchor="start">New York State Common Retirement Fund</text></g><g class="fl-facet-primary" transform="translate(0, 21)"><g class="fl-chart"><rect class="fl-chart-debug-rectangle" x="0" y="0" style="stroke-width: 1px; fill: none; display: none; stroke: red;" width="111.66666666666667" height="111.66666666666669"/><clipPath class="fl-data-clip-path" id="fl-chart-layout-18-clip-path"><rect x="0" y="0" width="111.66666666666667" height="111.66666666666669"/></clipPath><clipPath class="fl-grid-clip-path" id="fl-chart-layout-18-grid-clip-path"><rect x="-1.5" y="-1.5" width="114.66666666666667" height="114.66666666666669"/></clipPath><g class="fl-chart-background"><rect class="fl-chart-fill" x="0" y="0" width="111.66666666666667" height="111.66666666666669" fill="none"/><image class="fl-chart-image" x="0" y="0" width="111.66666666666667" height="111.66666666666669" preserveAspectRatio="none"/><rect class="fl-chart-interaction" x="0" y="0" width="111.66666666666667" height="111.66666666666669" style="opacity: 0;"/></g><g class="fl-data-background" clip-path="url(#fl-chart-layout-18-clip-path)"/><g class="fl-gridlines" clip-path="url(#fl-chart-layout-18-grid-clip-path)" style="pointer-events: none;"><g class="fl-gridlines-vertical"/><g class="fl-gridlines-horizontal"/></g><g class="fl-axes"><g class="fl-x-axes"><g class="fl-axis fl-x-axis fl-bottom-axis"><g class="fl-axis-line"/><g class="fl-axis-ticks"/><g class="fl-axis-title"/></g><g class="fl-axis fl-x-axis fl-top-axis"><g class="fl-axis-line"/><g class="fl-axis-ticks"/><g class="fl-axis-title"/></g></g><g class="fl-y-axes"><g class="fl-axis fl-y-axis fl-left-axis"><g class="fl-axis-line"/><g class="fl-axis-ticks"/><g class="fl-axis-title"/></g><g class="fl-axis fl-y-axis fl-right-axis"><g class="fl-axis-line"/><g class="fl-axis-ticks"/><g class="fl-axis-title"/></g></g></g><g class="fl-data-foreground" clip-path="url(#fl-chart-layout-18-clip-path)"/></g></g></g><g class="fl-facet" transform="translate(663.3333129882812, 0)" opacity="1"><rect class="fl-facet-rect" width="111.66666666666667" height="132.66666666666669" fill="none"/><rect class="fl-facet-primary-rect" width="111.66666666666667" height="111.66666666666669" y="21" fill="none"/><g class="fl-facet-title"><rect class="fl-facet-title-bg" height="21" width="0" fill="rgb(238, 238, 238)" x="48.138020833333336" opacity="1"/><text class="fl-facet-title-text" font-size="14" font-weight="600" dx="0" dy="14.700000000000001" x="48.138020833333336" opacity="1" text-anchor="start">all</text></g><g class="fl-facet-primary" transform="translate(0, 21)"><g class="fl-chart"><rect class="fl-chart-debug-rectangle" x="0" y="0" style="stroke-width: 1px; fill: none; display: none; stroke: red;" width="111.66666666666667" height="111.66666666666669"/><clipPath class="fl-data-clip-path" id="fl-chart-layout-19-clip-path"><rect x="0" y="0" width="111.66666666666667" height="111.66666666666669"/></clipPath><clipPath class="fl-grid-clip-path" id="fl-chart-layout-19-grid-clip-path"><rect x="-1.5" y="-1.5" width="114.66666666666667" height="114.66666666666669"/></clipPath><g class="fl-chart-background"><rect class="fl-chart-fill" x="0" y="0" width="111.66666666666667" height="111.66666666666669" fill="none"/><image class="fl-chart-image" x="0" y="0" width="111.66666666666667" height="111.66666666666669" preserveAspectRatio="none"/><rect class="fl-chart-interaction" x="0" y="0" width="111.66666666666667" height="111.66666666666669" style="opacity: 0;"/></g><g class="fl-data-background" clip-path="url(#fl-chart-layout-19-clip-path)"/><g class="fl-gridlines" clip-path="url(#fl-chart-layout-19-grid-clip-path)" style="pointer-events: none;"><g class="fl-gridlines-vertical"/><g class="fl-gridlines-horizontal"/></g><g class="fl-axes"><g class="fl-x-axes"><g class="fl-axis fl-x-axis fl-bottom-axis"><g class="fl-axis-line"/><g class="fl-axis-ticks"/><g class="fl-axis-title"/></g><g class="fl-axis fl-x-axis fl-top-axis"><g class="fl-axis-line"/><g class="fl-axis-ticks"/><g class="fl-axis-title"/></g></g><g class="fl-y-axes"><g class="fl-axis fl-y-axis fl-left-axis"><g class="fl-axis-line"/><g class="fl-axis-ticks"/><g class="fl-axis-title"/></g><g class="fl-axis fl-y-axis fl-right-axis"><g class="fl-axis-line"/><g class="fl-axis-ticks"/><g class="fl-axis-title"/></g></g></g><g class="fl-data-foreground" clip-path="url(#fl-chart-layout-19-clip-path)"/></g></g></g></g></g><g class="annotations below"/><g id="areas"/><g id="lines"/><g id="data-points"><g class="series" transform="translate(0,21)"><path class="data-point" data-type="arc" fill="#1D6996" opacity="1" d="M0.26714810468791717,-52.73221837143916A3,3,0,0,1,3.4526644008531617,-55.726476827861575A55.833333333333336,55.833333333333336,0,1,1,-46.14871735275203,-31.427010640640244A3,3,0,0,1,-41.830363617615376,-32.1088601806583L-22.236393969126194,-16.910219384197262A3,3,0,0,1,-21.50710284954271,-12.988847216716037A25.125,25.125,0,1,0,2.9186523068545394,-24.954901196191756A3,3,0,0,1,0.2671481046879194,-27.934590891259425Z" stroke-width="0" transform="translate(55.83333206176758, 55.83333206176758)" visibility="visible" id="point-0-0"/><path class="data-point" data-type="arc" fill="#EDAD08" opacity="1" d="M-41.502889702148885,-32.53103700858995A3,3,0,0,1,-41.916392622393175,-36.883290805410724A55.833333333333336,55.833333333333336,0,0,1,-3.4526644008531715,-55.72647682786157A3,3,0,0,1,-0.26714810468792516,-52.73221837143916L-0.26714810468793315,-27.934590891259422A3,3,0,0,1,-2.918652306854553,-24.95490119619175A25.125,25.125,0,0,0,-17.92937767747936,-17.601222716002002A3,3,0,0,1,-21.9089200536597,-17.332396212128906Z" stroke-width="0" transform="translate(55.83333206176758, 55.83333206176758)" visibility="visible" id="point-0-1"/></g><g class="series" transform="translate(132.6666717529297, 21)"><path class="data-point" data-type="arc" fill="#1D6996" opacity="1" d="M0.26714810468791717,-52.73221837143916A3,3,0,0,1,3.4526644008531617,-55.726476827861575A55.833333333333336,55.833333333333336,0,1,1,-47.11309200631845,-29.961937065471652A3,3,0,0,1,-42.81828652969855,-30.779092922690566L-22.75658447805393,-16.203413197998362A3,3,0,0,1,-21.904479943205338,-12.306883578620344A25.125,25.125,0,1,0,2.9186523068545394,-24.954901196191756A3,3,0,0,1,0.2671481046879194,-27.934590891259425Z" stroke-width="0" transform="translate(55.83333206176758, 55.83333206176758)" visibility="visible" id="point-0-2"/><path class="data-point" data-type="arc" fill="#EDAD08" opacity="1" d="M-42.50423509747166,-31.211347636105728A3,3,0,0,1,-43.054241574445015,-35.548465417798866A55.833333333333336,55.833333333333336,0,0,1,-3.4526644008531715,-55.72647682786157A3,3,0,0,1,-0.26714810468792516,-52.73221837143916L-0.26714810468793315,-27.934590891259422A3,3,0,0,1,-2.918652306854553,-24.95490119619175A25.125,25.125,0,0,0,-18.473398378128337,-17.02936221245427A3,3,0,0,1,-22.442533045827048,-16.635667911413524Z" stroke-width="0" transform="translate(55.83333206176758, 55.83333206176758)" visibility="visible" id="point-0-3"/></g><g class="series" transform="translate(265.3333435058594, 21)"><path class="data-point" data-type="arc" fill="#1D6996" opacity="1" d="M0.26714810468791717,-52.73221837143916A3,3,0,0,1,3.4526644008531617,-55.726476827861575A55.833333333333336,55.833333333333336,0,1,1,-32.86106955053553,45.13879948676059A3,3,0,0,1,-33.40693987017741,40.8011591868826L-17.6003372254595,21.694258823983294A3,3,0,0,1,-13.657992430771372,21.088500841951564A25.125,25.125,0,1,0,2.9186523068545394,-24.954901196191756A3,3,0,0,1,0.2671481046879194,-27.934590891259425Z" stroke-width="0" transform="translate(55.83333206176758, 55.83333206176758)" visibility="visible" id="point-0-4"/><path class="data-point" data-type="arc" fill="#EDAD08" opacity="1" d="M-33.818622175066395,40.460585965394664A3,3,0,0,1,-38.18171683797133,40.737177251450404A55.833333333333336,55.833333333333336,0,0,1,-3.4526644008531715,-55.72647682786157A3,3,0,0,1,-0.26714810468792516,-52.73221837143916L-0.26714810468793315,-27.934590891259422A3,3,0,0,1,-2.918652306854553,-24.95490119619175A25.125,25.125,0,0,0,-18.155712937750426,17.367662845702693A3,3,0,0,1,-18.012019530348482,21.35368560249535Z" stroke-width="0" transform="translate(55.83333206176758, 55.83333206176758)" visibility="visible" id="point-0-5"/></g><g class="series" transform="translate(398, 21)"><path class="data-point" data-type="arc" fill="#1D6996" opacity="1" d="M0.26714810468791717,-52.73221837143916A3,3,0,0,1,3.4526644008531617,-55.726476827861575A55.833333333333336,55.833333333333336,0,1,1,-40.180303368315776,-38.76731009937655A3,3,0,0,1,-35.80882234271981,-38.71028887660895L-19.06217094179094,-20.421713330614885A3,3,0,0,1,-19.00540786251981,-16.43350531625162A25.125,25.125,0,1,0,2.9186523068545394,-24.954901196191756A3,3,0,0,1,0.2671481046879194,-27.934590891259425Z" stroke-width="0" transform="translate(55.83333206176758, 55.83333206176758)" visibility="visible" id="point-0-6"/><path class="data-point" data-type="arc" fill="#EDAD08" opacity="1" d="M-35.41477187975038,-39.07111663605515A3,3,0,0,1,-35.08753279738616,-43.43070519003188A55.833333333333336,55.833333333333336,0,0,1,-3.4526644008531715,-55.72647682786157A3,3,0,0,1,-0.26714810468792516,-52.73221837143916L-0.26714810468793315,-27.934590891259422A3,3,0,0,1,-2.918652306854553,-24.95490119619175A25.125,25.125,0,0,0,-14.700319139893981,-20.37562863288558A3,3,0,0,1,-18.668120478821514,-20.782541090061084Z" stroke-width="0" transform="translate(55.83333206176758, 55.83333206176758)" visibility="visible" id="point-0-7"/></g><g class="series" transform="translate(530.6666870117188, 21)"><path class="data-point" data-type="arc" fill="#1D6996" opacity="1" d="M0.26714810468791717,-52.73221837143916A3,3,0,0,1,3.4526644008531617,-55.726476827861575A55.833333333333336,55.833333333333336,0,1,1,-34.730645040742985,-43.71662619833586A3,3,0,0,1,-30.404664501622225,-43.08496952565682L-16.209705893440102,-22.75210256701665A3,3,0,0,1,-16.678142251132037,-18.79109352994137A25.125,25.125,0,1,0,2.9186523068545394,-24.954901196191756A3,3,0,0,1,0.2671481046879194,-27.934590891259425Z" stroke-width="0" transform="translate(55.83333206176758, 55.83333206176758)" visibility="visible" id="point-0-8"/><path class="data-point" data-type="arc" fill="#EDAD08" opacity="1" d="M-29.96656719773992,-43.39081784048696A3,3,0,0,1,-29.06860612419809,-47.66945824222617A55.833333333333336,55.833333333333336,0,0,1,-3.4526644008531715,-55.72647682786157A3,3,0,0,1,-0.26714810468792516,-52.73221837143916L-0.26714810468793315,-27.934590891259422A3,3,0,0,1,-2.918652306854553,-24.95490119619175A25.125,25.125,0,0,0,-11.891832020346074,-22.13255421770998A3,3,0,0,1,-15.771608589557777,-23.0579508818468Z" stroke-width="0" transform="translate(55.83333206176758, 55.83333206176758)" visibility="visible" id="point-0-9"/></g><g class="series" transform="translate(663.3333129882812, 21)"><path class="data-point" data-type="arc" fill="#1D6996" opacity="1" d="M0.26714810468791717,-52.73221837143916A3,3,0,0,1,3.4526644008531617,-55.726476827861575A55.833333333333336,55.833333333333336,0,1,1,-32.2043301997339,-45.609672521271385A3,3,0,0,1,-27.920964833170096,-44.73452743986307L-14.897879997348676,-23.631883292629695A3,3,0,0,1,-15.58943800884126,-19.703681066452926A25.125,25.125,0,1,0,2.9186523068545394,-24.954901196191756A3,3,0,0,1,0.2671481046879194,-27.934590891259425Z" stroke-width="0" transform="translate(55.83333206176758, 55.83333206176758)" visibility="visible" id="point-0-10"/><path class="data-point" data-type="arc" fill="#EDAD08" opacity="1" d="M-27.466281707347452,-45.015126253911745A3,3,0,0,1,-26.327933494503885,-49.23617601946857A55.833333333333336,55.833333333333336,0,0,1,-3.452664400853122,-55.726476827861575A3,3,0,0,1,-0.26714810468787764,-52.73221837143915L-0.26714810468790784,-27.93459089125943A3,3,0,0,1,-2.9186523068545314,-24.95490119619176A25.125,25.125,0,0,0,-10.621923994020126,-22.76928535692896A3,3,0,0,1,-14.443196871526002,-23.912482106678382Z" stroke-width="0" transform="translate(55.83333206176758, 55.83333206176758)" visibility="visible" id="point-0-11"/></g></g><g id="lines-secondary"/><g id="data-points-secondary"/><g id="axes-highlights"><g class="axis-highlights-facet"><defs><pattern class="fl-pattern-auto" width="4" height="4" patternUnits="userSpaceOnUse" id="fl-pattern-diagonal-x"><path stroke-width="1" shape-rendering="auto" stroke-linecap="square" d="M 0 4 l 4 -4 M -1 1 l 2 -2 M 3 5 l 2 -2" style="stroke: currentcolor;"/></pattern><pattern class="fl-pattern-auto" width="4" height="4" patternUnits="userSpaceOnUse" id="fl-pattern-dots-x"><path stroke-width="1" shape-rendering="auto" stroke-linecap="square" d="M 1 2 A 1.2 1.2 0 1 1 1 2.1 Z" style="fill: currentcolor;"/></pattern><pattern class="fl-pattern-auto" width="4" height="4" patternUnits="userSpaceOnUse" id="fl-pattern-grid-x"><path stroke-width="1" shape-rendering="auto" stroke-linecap="square" d="M 2 0 l 0 4 M 0 2 l 4 0" style="stroke: currentcolor;"/></pattern><pattern class="fl-pattern-auto" width="4" height="4" patternUnits="userSpaceOnUse" id="fl-pattern-diagonal-y"><path stroke-width="1" shape-rendering="auto" stroke-linecap="square" d="M 0 4 l 4 -4 M -1 1 l 2 -2 M 3 5 l 2 -2" style="stroke: currentcolor;"/></pattern><pattern class="fl-pattern-auto" width="4" height="4" patternUnits="userSpaceOnUse" id="fl-pattern-grid-y"><path stroke-width="1" shape-rendering="auto" stroke-linecap="square" d="M 2 0 l 0 4 M 0 2 l 4 0" style="stroke: currentcolor;"/></pattern><pattern class="fl-pattern-auto" width="4" height="4" patternUnits="userSpaceOnUse" id="fl-pattern-dots-y"><path stroke-width="1" shape-rendering="auto" stroke-linecap="square" d="M 1 2 A 1.2 1.2 0 1 1 1 2.1 Z" style="fill: currentcolor;"/></pattern></defs><g class="axis-highlights" style="opacity: 1;" transform="translate(0, 21)"/></g><g class="axis-highlights-facet"><g class="axis-highlights" style="opacity: 1;" transform="translate(132.6666717529297, 21)"/></g><g class="axis-highlights-facet"><g class="axis-highlights" style="opacity: 1;" transform="translate(265.3333435058594, 21)"/></g><g class="axis-highlights-facet"><g class="axis-highlights" style="opacity: 1;" transform="translate(398, 21)"/></g><g class="axis-highlights-facet"><g class="axis-highlights" style="opacity: 1;" transform="translate(530.6666870117188, 21)"/></g><g class="axis-highlights-facet"><g class="axis-highlights" style="opacity: 1;" transform="translate(663.3333129882812, 21)"/></g></g><g id="data-point-labels"><g class="series" transform="translate(0,21)"/><g class="series" transform="translate(132.6666717529297, 21)"/><g class="series" transform="translate(265.3333435058594, 21)"/><g class="series" transform="translate(398, 21)"/><g class="series" transform="translate(530.6666870117188, 21)"/><g class="series" transform="translate(663.3333129882812, 21)"/></g><g id="stack-labels"/><g class="annotations above"/></svg><svg xmlns="http://www.w3.org/2000/svg" class="flourish-panel-close" viewBox="0 0 40 40" style="width: 1.25rem; height: 1.25rem; position: absolute; right: 1rem; top: 1rem; cursor: pointer; opacity: 0;" x="-31.5" y="14"><path stroke="#333333" stroke-width="0.5rem" stroke-linecap="round" d="M 10,10 L 30,30 M 30,10 L 10,30" style="stroke: rgb(51, 51, 51);"/></svg></svg>