<?xml version="1.0" encoding="utf-8"?>
<!-- Generator: Adobe Illustrator 27.2.0, SVG Export Plug-In . SVG Version: 6.00 Build 0)  -->
<svg version="1.1" id="Layer_1" xmlns="http://www.w3.org/2000/svg" xmlns:xlink="http://www.w3.org/1999/xlink" x="0px" y="0px"
	 viewBox="0 0 467.2 492.5" style="enable-background:new 0 0 467.2 492.5;" xml:space="preserve">
<style type="text/css">
	.st0{fill:none;}
	.st1{font-family:'ArialMT';}
	.st2{font-size:12px;}
	.st3{fill:none;stroke:#000000;}
	.st4{fill:#80CDC1;stroke:#80CDC1;}
	.st5{fill:#80CDC1;}
	.st6{fill:none;stroke:#018571;}
	.st7{fill:#018571;stroke:#018571;}
	.st8{fill:#A6611A;stroke:#A6611A;}
	.st9{fill:#A6611A;}
	.st10{fill:none;stroke:#DFC27D;}
	.st11{fill:#DFC27D;}
	.st12{fill:#DFC27D;stroke:#DFC27D;}
	.st13{fill:#141500;}
	.st14{font-size:13px;}
	.st15{font-family:'Arial-BoldMT';}
	.st16{font-size:10px;}
</style>
<rect x="32.4" y="378.1" class="st0" width="400" height="400"/>
<text transform="matrix(1 0 0 1 59.0527 417.1133)" class="st1 st2">2017</text>
<path id="SVGID_x5F_1_x5F_" class="st0" d="M72.4,403.1v-6"/>
<text><textPath  xlink:href="#SVGID_x5F_1_x5F_" startOffset="0%">
</textPath>
</text>
<text transform="matrix(1 0 0 1 373.0527 417.1133)" class="st1 st2">2022</text>
<line class="st3" x1="386.4" y1="403.1" x2="386.4" y2="397.1"/>
<line class="st4" x1="72.4" y1="378.1" x2="386.4" y2="210.6"/>
<circle class="st5" cx="72.4" cy="378.1" r="2.5"/>
<circle class="st5" cx="386.4" cy="210.6" r="2.5"/>
<line class="st6" x1="72.4" y1="293.7" x2="386.4" y2="36.1"/>
<circle class="st7" cx="72.4" cy="293.7" r="2.5"/>
<circle class="st7" cx="386.4" cy="36.1" r="2.5"/>
<line class="st8" x1="72.4" y1="340.1" x2="386.4" y2="295.1"/>
<circle class="st9" cx="72.4" cy="340.1" r="2.5"/>
<circle class="st9" cx="386.4" cy="295.1" r="2.5"/>
<line class="st10" x1="72.4" y1="341.5" x2="386.4" y2="345.7"/>
<circle class="st11" cx="72.4" cy="341.5" r="2.5"/>
<circle class="st12" cx="386.4" cy="345.7" r="2.5"/>
<text transform="matrix(1 0 0 1 54.3744 382.2264)" class="st1 st2">46</text>
<text transform="matrix(1 0 0 1 392.9004 215.6318)" class="st1 st2">165</text>
<text transform="matrix(1 0 0 1 45.5961 301.4199)" class="st1 st2">106</text>
<text transform="matrix(1 0 0 1 392.9004 41.1133)" class="st1 st2">289</text>
<text transform="matrix(1 0 0 1 62.4035 335.5147)" class="st1 st2">73</text>
<text transform="matrix(1 0 0 1 392.9004 300.0762)" class="st1 st2">105</text>
<text transform="matrix(1 0 0 1 60.5135 353.5485)" class="st1 st2">72</text>
<text transform="matrix(1 0 0 1 392.9004 350.7429)" class="st1 st2">69</text>
<rect x="27.2" y="73.4" class="st0" width="124.7" height="60.7"/>
<text transform="matrix(1 0 0 1 27.2337 82.7259)"><tspan x="0" y="0" class="st13 st1 st14">Private equity assets </tspan><tspan x="0" y="15.6" class="st13 st1 st14">under management </tspan><tspan x="0" y="31.2" class="st13 st1 st14">(USD, billions)</tspan></text>
<rect x="309.1" y="106.4" class="st0" width="88" height="25.2"/>
<text transform="matrix(1 0 0 1 309.0842 114.9452)" class="st15 st2">BLACKSTONE</text>
<text transform="matrix(1 0 0 1 330.9299 222.972)" class="st15 st2">KKR</text>
<text transform="matrix(1 0 0 1 310.5992 364.732)" class="st15 st2">APOLLO</text>
<text transform="matrix(1 0 0 1 252.5709 302.9524)" class="st15 st2">CARLYLE</text>
<line class="st3" x1="72.4" y1="403.1" x2="72.4" y2="397.1"/>
<text transform="matrix(1 0 0 1 6.7505 466.2568)"><tspan x="0" y="0" class="st1 st16">Source: Company filings</tspan><tspan x="0" y="9" class="st1 st16">Note: Carlyle’s private equity assets under management only includes corporate </tspan><tspan x="0" y="18" class="st1 st16">private equity and excludes assets in real estate and natural resources</tspan><tspan x="312.4" y="18" class="st1 st2"> </tspan></text>
</svg>
